<svg height="464pt" viewBox="-28 0 464 464.00045" width="464pt" xmlns="http://www.w3.org/2000/svg"><path d="m384 0h24v192c-44.183594 0-80-35.816406-80-80v-56c0-30.929688 25.074219-56 56-56zm0 0" fill="#aabece"/><path d="m328 72h-176c-17.671875 0-32 14.328125-32 32v56h32v-56h176zm0 0" fill="#cfdfe8"/><path d="m144 144h-16c-13.253906 0-24 18.742188-24 32v15.503906h64v-15.503906c0-13.257812-10.742188-32-24-32zm0 0" fill="#aabece"/><path d="m112 176h48c53.019531 0 96 42.980469 96 96h-240c0-53.019531 42.980469-96 96-96zm0 0" fill="#195c85"/><path d="m16 272h240c8.835938 0 16 7.164062 16 16s-7.164062 16-16 16h-240c-8.835938 0-16-7.164062-16-16s7.164062-16 16-16zm0 0" fill="#aabece"/><g fill="#7fcac9"><path d="m24 352c-4.417969 0-8-3.582031-8-8v-8c0-4.417969 3.582031-8 8-8s8 3.582031 8 8v8c0 4.417969-3.582031 8-8 8zm0 0"/><path d="m56 392c-4.417969 0-8-3.582031-8-8v-48c0-4.417969 3.582031-8 8-8s8 3.582031 8 8v48c0 4.417969-3.582031 8-8 8zm0 0"/><path d="m88 352c-4.417969 0-8-3.582031-8-8v-8c0-4.417969 3.582031-8 8-8s8 3.582031 8 8v8c0 4.417969-3.582031 8-8 8zm0 0"/><path d="m120 392c-4.417969 0-8-3.582031-8-8v-48c0-4.417969 3.582031-8 8-8s8 3.582031 8 8v48c0 4.417969-3.582031 8-8 8zm0 0"/><path d="m152 352c-4.417969 0-8-3.582031-8-8v-8c0-4.417969 3.582031-8 8-8s8 3.582031 8 8v8c0 4.417969-3.582031 8-8 8zm0 0"/><path d="m184 392c-4.417969 0-8-3.582031-8-8v-48c0-4.417969 3.582031-8 8-8s8 3.582031 8 8v48c0 4.417969-3.582031 8-8 8zm0 0"/><path d="m216 352c-4.417969 0-8-3.582031-8-8v-8c0-4.417969 3.582031-8 8-8s8 3.582031 8 8v8c0 4.417969-3.582031 8-8 8zm0 0"/><path d="m56 448c-4.417969 0-8-3.582031-8-8v-24c0-4.417969 3.582031-8 8-8s8 3.582031 8 8v24c0 4.417969-3.582031 8-8 8zm0 0"/><path d="m120 448c-4.417969 0-8-3.582031-8-8v-24c0-4.417969 3.582031-8 8-8s8 3.582031 8 8v24c0 4.417969-3.582031 8-8 8zm0 0"/><path d="m184 448c-4.417969 0-8-3.582031-8-8v-24c0-4.417969 3.582031-8 8-8s8 3.582031 8 8v24c0 4.417969-3.582031 8-8 8zm0 0"/><path d="m248 448c-4.417969 0-8-3.582031-8-8v-24c0-4.417969 3.582031-8 8-8s8 3.582031 8 8v24c0 4.417969-3.582031 8-8 8zm0 0"/><path d="m248 392c-4.417969 0-8-3.582031-8-8v-48c0-4.417969 3.582031-8 8-8s8 3.582031 8 8v48c0 4.417969-3.582031 8-8 8zm0 0"/><path d="m24 432c-4.417969 0-8-3.582031-8-8v-48c0-4.417969 3.582031-8 8-8s8 3.582031 8 8v48c0 4.417969-3.582031 8-8 8zm0 0"/><path d="m88 432c-4.417969 0-8-3.582031-8-8v-48c0-4.417969 3.582031-8 8-8s8 3.582031 8 8v48c0 4.417969-3.582031 8-8 8zm0 0"/><path d="m152 432c-4.417969 0-8-3.582031-8-8v-48c0-4.417969 3.582031-8 8-8s8 3.582031 8 8v48c0 4.417969-3.582031 8-8 8zm0 0"/><path d="m216 432c-4.417969 0-8-3.582031-8-8v-48c0-4.417969 3.582031-8 8-8s8 3.582031 8 8v48c0 4.417969-3.582031 8-8 8zm0 0"/><path d="m24 464c-2.128906.023438-4.175781-.8125-5.679688-2.320312-1.503906-1.503907-2.339843-3.550782-2.320312-5.679688-.027344-1.050781.191406-2.089844.640625-3.039062.40625-.96875.972656-1.863282 1.679687-2.640626.378907-.34375.777344-.664062 1.191407-.960937.46875-.292969.953125-.558594 1.449219-.800781.46875-.164063.949218-.292969 1.4375-.390625 1.554687-.316407 3.164062-.179688 4.640624.390625.953126.472656 1.84375 1.066406 2.640626 1.769531.722656.765625 1.292968 1.660156 1.679687 2.640625 1.050781 2.457031.789063 5.28125-.695313 7.507812-1.484374 2.222657-3.988281 3.550782-6.664062 3.523438zm0 0"/><path d="m88 464c-1.046875-.011719-2.078125-.230469-3.039062-.640625-.980469-.386719-1.875-.957031-2.640626-1.679687-2.289062-2.289063-2.957031-5.742188-1.679687-8.71875.386719-.980469.957031-1.875 1.679687-2.640626 3.207032-2.960937 8.152344-2.960937 11.359376 0 .707031.777344 1.273437 1.671876 1.679687 2.640626 1.054687 2.460937.796875 5.285156-.6875 7.511718-1.484375 2.226563-3.996094 3.554688-6.671875 3.527344zm0 0"/><path d="m152 464c-1.046875-.011719-2.078125-.230469-3.039062-.640625-.96875-.40625-1.863282-.972656-2.640626-1.679687-2.289062-2.289063-2.957031-5.742188-1.679687-8.71875.386719-.980469.957031-1.875 1.679687-2.640626.796876-.703124 1.683594-1.296874 2.640626-1.769531 1.445312-.566406 3.027343-.703125 4.550781-.390625.519531.085938 1.03125.21875 1.527343.390625.476563.226563.933594.492188 1.359376.800781.460937.277344.886718.597657 1.28125.960938.707031.777344 1.273437 1.671875 1.679687 2.640625 1.058594 2.460937.800781 5.289063-.683594 7.519531-1.484375 2.226563-3.996093 3.554688-6.675781 3.527344zm0 0"/><path d="m216 464c-1.046875-.011719-2.078125-.230469-3.039062-.640625-.96875-.40625-1.863282-.972656-2.640626-1.679687-1.503906-1.503907-2.339843-3.550782-2.320312-5.679688-.027344-1.050781.191406-2.089844.640625-3.039062.386719-.980469.957031-1.875 1.679687-2.640626 3.207032-2.960937 8.152344-2.960937 11.359376 0 .707031.777344 1.273437 1.671876 1.679687 2.640626.445313.949218.664063 1.988281.640625 3.039062.023438 2.128906-.8125 4.175781-2.320312 5.679688-1.503907 1.507812-3.550782 2.34375-5.679688 2.320312zm0 0"/></g></svg>